<svg width="44" height="44" viewBox="0 0 44 44" fill="none" xmlns="http://www.w3.org/2000/svg">
<path d="M14.6983 30.9805C14.391 30.7481 14.1885 30.4031 14.1355 30.0215C14.0824 29.6398 14.1832 29.2527 14.4156 28.9453L24.681 15.3672L16.2964 17.0106C15.9193 17.0823 15.5291 17.0019 15.2111 16.7868C14.8932 16.5718 14.6732 16.2397 14.5993 15.863C14.5254 15.4863 14.6036 15.0957 14.8168 14.7764C15.03 14.4572 15.3608 14.2353 15.7371 14.1593L27.8536 11.7844C28.0542 11.745 28.2608 11.7485 28.46 11.7944C28.6591 11.8404 28.8464 11.9279 29.0094 12.0512C29.1725 12.1744 29.3077 12.3307 29.4062 12.5098C29.5047 12.6889 29.5644 12.8868 29.5812 13.0905L30.5993 25.3955C30.6162 25.5863 30.5951 25.7785 30.5375 25.9611C30.4798 26.1437 30.3866 26.3131 30.2632 26.4596C30.1398 26.606 29.9887 26.7267 29.8185 26.8145C29.6483 26.9024 29.4625 26.9557 29.2716 26.9715C29.0808 26.9872 28.8887 26.9651 28.7064 26.9064C28.5241 26.8476 28.3553 26.7534 28.2095 26.6292C28.0638 26.5049 27.9441 26.3531 27.8572 26.1824C27.7704 26.0118 27.7181 25.8256 27.7034 25.6347L26.9989 17.1196L16.7335 30.6977C16.5011 31.0051 16.1561 31.2075 15.7745 31.2606C15.3928 31.3136 15.0057 31.2128 14.6983 30.9805Z" fill="black"/>
</svg>
